<svg xmlns="http://www.w3.org/2000/svg" xmlns:xlink="http://www.w3.org/1999/xlink" width="500" zoomAndPan="magnify" viewBox="0 0 375 374.999991" height="500" preserveAspectRatio="xMidYMid meet" version="1.0"><defs><g/></defs><path fill="#00897c" d="M 221.929688 106.25 C 221.929688 106.929688 222.578125 106.679688 223.433594 106.738281 L 223.273438 105.179688 C 221.046875 105.667969 222.808594 105.226562 221.929688 106.25 Z M 360.214844 246.328125 L 355.5625 246.328125 L 355.488281 232.019531 L 330.6875 231.824219 C 331.023438 232.324219 330.34375 232.472656 333.265625 232.359375 L 355.070312 232.417969 L 355.101562 246.328125 L 355.5625 246.328125 L 355.488281 232.019531 L 330.6875 231.824219 C 330.328125 218.570312 323.710938 198.097656 318.976562 187.550781 L 340.109375 175.355469 C 339.675781 173.90625 334.144531 164.617188 332.9375 162.566406 C 331.613281 160.320312 330.480469 158.4375 329.238281 156.175781 C 328.105469 154.109375 326.460938 151.871094 325.789062 149.90625 C 323.585938 150.726562 307.917969 160.253906 304.464844 162.003906 C 303.5625 161.386719 304.066406 161.828125 303.289062 160.875 L 289.417969 144.492188 C 287.945312 143.035156 286.585938 141.886719 285.148438 140.4375 C 283.621094 138.898438 282.441406 138.144531 280.929688 136.769531 L 274.101562 131.351562 C 272.863281 130.539062 272.773438 130.691406 271.910156 129.425781 C 273.953125 124.945312 282.242188 112.476562 284.015625 108.066406 C 281.75 107.53125 262.042969 95.046875 258.621094 93.738281 L 252.675781 104.246094 C 251.257812 106.578125 247.449219 112.730469 246.773438 114.882812 C 243.429688 113.988281 239.390625 111.957031 235.992188 110.765625 C 233.085938 109.746094 228.238281 108.539062 225.609375 107.402344 C 225.496094 107.355469 225.488281 107.203125 225.316406 107.167969 L 224.710938 106.726562 C 226.046875 105.472656 224.6875 105.558594 225.425781 104.414062 C 225.84375 104.691406 225.789062 105.085938 227.050781 105.632812 C 226.914062 104.179688 226.554688 102.15625 224.527344 103.46875 C 223.277344 104.277344 224.308594 105.308594 223.644531 106.839844 L 223.433594 106.738281 L 223.273438 105.179688 C 221.046875 105.667969 222.808594 105.226562 221.929688 106.25 C 220.210938 106.402344 214.640625 104.90625 212.351562 104.515625 C 209.183594 103.972656 205.445312 103.296875 202.265625 103.128906 L 202.128906 83.277344 C 204.105469 84.085938 204.863281 81.046875 206.484375 80.699219 C 206.679688 80.65625 206.707031 80.5625 206.820312 80.503906 C 205.726562 84.457031 202.640625 83.632812 204.851562 86.28125 C 206.859375 85.773438 205.34375 86.292969 205.582031 85.304688 C 205.976562 83.679688 206.152344 84.105469 206.703125 83.785156 C 206.707031 85.742188 206.710938 85.8125 206.09375 86.457031 C 204.691406 87.917969 204.84375 86.308594 204.242188 88.480469 C 205.492188 88.746094 205.660156 88.289062 206.660156 87.601562 L 207.210938 98.722656 L 217.332031 100.617188 C 217.90625 101.066406 216.324219 101.664062 219.21875 101.050781 C 218.503906 104.230469 221.753906 105.492188 223.320312 103.855469 C 224.550781 102.570312 223.128906 102.804688 224.976562 102.371094 C 226.195312 102.441406 226.300781 102.621094 227.511719 102.953125 C 228.195312 103.140625 229.128906 103.34375 230.101562 103.636719 L 244.636719 108.539062 L 255.222656 90.222656 C 258.085938 86.878906 262.484375 90.101562 265.105469 91.683594 L 283.121094 102.105469 C 285.980469 103.796875 290.582031 105.621094 288.519531 110.21875 C 287.125 113.335938 279.394531 125.003906 278.179688 128.453125 C 279.441406 129.175781 280.785156 130.5 281.988281 131.375 L 287.632812 136.171875 C 288.265625 136.808594 288.714844 137.089844 289.390625 137.679688 C 294.25 141.949219 301.730469 150.378906 305.480469 155.707031 C 308.21875 154.796875 321.894531 146.058594 323.902344 145.285156 C 328.445312 143.53125 330.21875 148.160156 331.882812 151.027344 C 333.589844 153.96875 335.25 157.003906 337.03125 159.917969 C 338.851562 162.910156 340.511719 166.070312 342.296875 169.054688 C 344.117188 172.101562 347.03125 175.886719 343.351562 178.820312 L 325.277344 189.25 C 325.832031 192.742188 332.3125 205.550781 335.203125 226.996094 C 348.78125 228.511719 360.011719 223.511719 360.28125 232.152344 Z M 19.589844 246.328125 L 19.109375 246.328125 C 19.132812 239.421875 19.285156 232.699219 19.582031 232.171875 C 20.117188 231.945312 19.851562 231.964844 20.714844 231.90625 C 21.070312 231.882812 21.773438 231.917969 22.171875 231.917969 C 26.585938 231.925781 42.074219 232.242188 44.078125 231.644531 C 43.667969 232.269531 44.8125 232.058594 43.058594 232.332031 L 19.582031 232.339844 Z M 19.109375 246.328125 L 14.613281 246.328125 L 14.613281 235.417969 C 14.609375 231.40625 14.558594 228.417969 17.742188 227.410156 C 21.210938 226.3125 34.757812 227.710938 39.722656 227.054688 C 40.347656 220.597656 42.023438 213.152344 43.664062 207.21875 C 45.914062 199.082031 47.707031 195.753906 49.605469 189.632812 L 35.988281 181.578125 C 28.914062 177.320312 27.867188 177.320312 32.628906 169.085938 L 43.175781 150.835938 C 44.851562 147.925781 46.335938 143.269531 51.195312 145.414062 C 54.421875 146.835938 66.558594 154.851562 69.5 155.742188 C 77.710938 144.773438 83.410156 139.757812 92.964844 131.441406 C 94.230469 130.339844 95.523438 129.332031 96.746094 128.496094 C 95.160156 124.554688 90.890625 118.460938 88.851562 114.566406 C 84.835938 106.886719 83.65625 107 92.0625 102.054688 C 95.046875 100.300781 98.035156 98.570312 101.179688 96.773438 C 119.195312 86.484375 116.855469 84.882812 125.277344 99.753906 C 126.746094 102.351562 128.90625 106.742188 130.554688 108.628906 C 132.8125 108.0625 142.746094 104.210938 148.460938 102.640625 C 154.265625 101.042969 161.703125 99.335938 167.992188 98.761719 C 168.25 94.140625 168.054688 89.035156 168.054688 84.363281 C 168.054688 80.242188 167.167969 74.347656 171.488281 73.902344 L 191.773438 73.808594 C 194.976562 73.804688 194.78125 74.851562 197.480469 74.742188 C 196.878906 75.949219 196.871094 76.351562 197.476562 77.570312 L 198.011719 78.34375 L 172.699219 78.324219 L 172.527344 103.039062 C 154.914062 106.179688 149.914062 106.335938 133.386719 112.820312 C 131.988281 113.367188 129.808594 114.523438 128.394531 114.769531 L 116.203125 93.742188 C 113.832031 94.554688 93.492188 107.128906 90.8125 108.046875 C 91.476562 109.964844 92.898438 111.921875 93.804688 113.597656 C 96.230469 118.085938 101.136719 125.460938 102.886719 129.425781 C 101.953125 130.761719 101.714844 130.609375 100.523438 131.449219 C 99.699219 132.035156 99.164062 132.675781 98.347656 133.238281 C 92.085938 137.535156 86.617188 143.746094 81.578125 148.890625 C 77.375 153.183594 71.988281 160.5625 70.421875 162.007812 C 66.1875 160.152344 52.347656 150.980469 49.050781 149.945312 C 47.914062 153.140625 35.398438 172.757812 34.832031 175.210938 C 36.242188 176.257812 38.519531 177.515625 39.988281 178.285156 L 55.703125 187.46875 C 55.230469 189.871094 52.824219 194.734375 51.804688 197.65625 C 48.027344 208.492188 45.082031 219.832031 44.078125 231.644531 C 42.074219 232.242188 26.585938 231.925781 22.171875 231.917969 C 21.773438 231.917969 21.070312 231.882812 20.714844 231.90625 C 19.851562 231.964844 20.117188 231.945312 19.582031 232.171875 C 19.285156 232.699219 19.132812 239.421875 19.109375 246.328125 Z M 222.808594 101.582031 L 220.574219 101.417969 L 220.164062 101.667969 C 220.324219 102.730469 220.617188 102.957031 221.691406 103.433594 L 222.960938 102.710938 C 223.003906 101.761719 223.160156 102.375 222.808594 101.582031 Z M 199.074219 74.871094 C 198.132812 75.785156 197.878906 76.109375 198.664062 77.335938 C 200.078125 77.679688 199.445312 77.871094 200.769531 77.152344 C 201.449219 75.582031 200.789062 74.835938 199.074219 74.871094 Z M 223.644531 106.839844 L 225.609375 107.402344 C 225.496094 107.355469 225.488281 107.203125 225.316406 107.167969 L 224.710938 106.726562 C 226.046875 105.472656 224.6875 105.558594 225.425781 104.414062 C 225.84375 104.691406 225.789062 105.085938 227.050781 105.632812 C 226.914062 104.179688 226.554688 102.15625 224.527344 103.46875 C 223.277344 104.277344 224.308594 105.308594 223.644531 106.839844 Z M 222.808594 101.582031 C 223.160156 102.375 223.003906 101.761719 222.960938 102.710938 L 221.691406 103.433594 C 220.617188 102.957031 220.324219 102.730469 220.164062 101.667969 L 220.574219 101.417969 C 220.5 101.367188 220.476562 101.292969 220.347656 101.273438 C 220.050781 101.234375 220.140625 100.757812 217.332031 100.617188 C 217.90625 101.066406 216.324219 101.664062 219.21875 101.050781 C 218.503906 104.230469 221.753906 105.492188 223.320312 103.855469 C 224.550781 102.570312 223.128906 102.804688 224.976562 102.371094 Z M 201.210938 78.375 L 201.949219 78.339844 C 200.886719 77.234375 201.566406 77.933594 201.210938 78.375 Z M 203.542969 74.050781 L 200.867188 73.886719 C 202.644531 75.207031 202.441406 75.75 201.957031 77.648438 C 201.9375 77.738281 201.886719 77.863281 201.863281 77.976562 C 203.644531 77.636719 204.675781 76.773438 205.132812 79.679688 C 204.058594 79.648438 204.453125 79.53125 204.035156 79.285156 L 203.164062 78.585938 C 203.1875 80.222656 203.316406 80.28125 202.832031 81.625 C 204.476562 80.914062 204.148438 80.308594 205.550781 79.851562 L 206.449219 79.703125 C 206.488281 79.695312 206.601562 79.707031 206.667969 79.675781 L 206.558594 77.039062 C 206.332031 75.316406 205.136719 74.199219 203.542969 74.050781 Z M 201.949219 78.339844 L 201.210938 78.375 L 198.011719 78.34375 L 172.699219 78.324219 L 172.527344 103.039062 C 173.015625 102.578125 172.921875 103.671875 172.980469 102.027344 L 173 78.738281 L 201.71875 78.738281 L 201.667969 102.027344 C 201.828125 104.039062 201.714844 102.589844 202.265625 103.128906 L 202.128906 83.277344 L 202.011719 78.546875 C 202.078125 78.515625 201.972656 78.40625 201.949219 78.339844 Z M 203.542969 74.050781 C 202.492188 73.117188 190.332031 73.546875 187.804688 73.546875 C 184.496094 73.546875 173.582031 72.820312 171.488281 73.902344 L 191.773438 73.808594 C 194.976562 73.804688 194.78125 74.851562 197.480469 74.742188 C 196.878906 75.949219 196.871094 76.351562 197.476562 77.570312 L 198.011719 78.34375 L 201.210938 78.375 C 201.566406 77.933594 200.886719 77.234375 201.949219 78.339844 C 201.972656 78.40625 202.078125 78.515625 202.011719 78.546875 L 202.128906 83.277344 C 204.105469 84.085938 204.863281 81.046875 206.484375 80.699219 C 206.679688 80.65625 206.707031 80.5625 206.820312 80.503906 C 205.726562 84.457031 202.640625 83.632812 204.851562 86.28125 C 206.859375 85.773438 205.34375 86.292969 205.585938 85.304688 C 205.976562 83.679688 206.152344 84.105469 206.703125 83.785156 C 206.707031 85.742188 206.710938 85.8125 206.09375 86.457031 C 204.691406 87.917969 204.84375 86.308594 204.242188 88.480469 C 205.492188 88.746094 205.660156 88.289062 206.660156 87.601562 L 207.210938 98.722656 C 205.761719 95.664062 208.015625 79.882812 206.558594 77.039062 L 206.667969 79.675781 C 206.601562 79.707031 206.488281 79.695312 206.449219 79.703125 L 205.550781 79.851562 C 204.148438 80.308594 204.476562 80.914062 202.832031 81.625 C 203.316406 80.28125 203.1875 80.222656 203.164062 78.585938 L 204.035156 79.285156 C 204.453125 79.53125 204.058594 79.648438 205.132812 79.679688 C 204.675781 76.773438 203.644531 77.636719 201.863281 77.976562 C 201.886719 77.863281 201.9375 77.738281 201.957031 77.648438 C 202.441406 75.75 202.644531 75.207031 200.867188 73.886719 Z M 200.769531 77.152344 C 199.445312 77.871094 200.078125 77.679688 198.664062 77.335938 C 197.878906 76.109375 198.132812 75.785156 199.074219 74.871094 C 200.789062 74.835938 201.449219 75.582031 200.769531 77.152344 Z M 200.769531 77.152344 " fill-opacity="1" fill-rule="nonzero"/><path fill="#00897c" d="M 67.097656 246.328125 C 67.160156 179.832031 121.019531 125.941406 187.449219 125.941406 C 253.878906 125.941406 307.734375 179.832031 307.800781 246.328125 L 302.859375 246.328125 C 302.792969 182.5625 251.148438 130.890625 187.449219 130.890625 C 123.746094 130.890625 72.101562 182.5625 72.039062 246.328125 Z M 67.097656 246.328125 " fill-opacity="1" fill-rule="nonzero"/></svg>
